{"title":"The Man from Nowhere (Ajeossi) (2010) HQ AC3 DD5.1 (Externe Nl S","uid":6460256,"size":1566045517,"categoryP":"video","categoryS":"movies","magnet":"?xt=urn:btih:1af07c9970595a6e7cc0b9b844ec2eb5f81e4ecf&amp;dn=The+Man+from+Nowhere+%28Ajeossi%29+%282010%29+HQ+AC3+DD5.1+%28Externe+Nl+S&amp;tr=udp%3A%2F%2Ftracker.openbittorrent.com%3A80&amp;tr=udp%3A%2F%2Fopen.demonii.com%3A1337&amp;tr=udp%3A%2F%2Ftracker.coppersurfer.tk%3A6969&amp;tr=udp%3A%2F%2Fexodus.desync.com%3A6969","seeders":3,"leechers":0,"uploader":"Vlinder.","files":-1,"time":1307731793,"description":"The Man from Nowhere (Ajeossi) (2010) HQ AC3 DD5.1 (Externe Nl Subs) TBS\n\n\n\n\nZuid-Korea\nActie / Misdaad\n119 minuten\n\ngeregisseerd door Jeong-beom Lee\nmet Bin Won, Se-Ron Kim en Hyo-Seo Kim\n\nTae-sik Cha, gewoonlijk &quot;Ajusshi&quot; (mister) genoemd in zijn buurt, runt een vervallen lommerd in een achterbuurt. \nNiemand weet veel van hem af en hijzelf bemoeit zich met geen mens, \nbehalve So-mi, het dochtertje van junkiemoeder Hyo-jeong. Als deze een man over de vloer heeft, \nkomt So-mi naar Tae-sik en besteedt daar haar tijd. \nOp een dag levert Hyo-jeong een pakje bij Tae-sik in met de vraag dit voor hem te bewaren. \nDit is het begin van een hoop ellende voor Tae-sik.\n\nStoryline\n\nAn ex-special agent CHA Tae-shik's only connection to the rest of the world is a little girl, So-mi, who lives nearby. H\ner mother, Hyo-jeong smuggles drugs from a drug trafficking organization and entrusts Tae-shik with the product, \nwithout letting him know. The traffickers find out about her smuggling and kidnap both Hyo-jeong and So-mi. \nThe gang promises to release them if Tae-shik makes a delivery for them, \nhowever it actually is a larger plot to eliminate a rival drug ring leader. When Hyo-jeon's disemboweled body is discovered, \nTae-shik realizes that So-mi's life may also be in danger. \nTae-shik becomes enraged at the prospect that So-mi may already be dead and prepares for a battle, \nputting his own life at risk.\n\n\n\n\n\n\nNFO\n\nSOURCE..........: DVD5 NTSC\nSIZE............: 1.45GB\nFORM............: AVI\nVIDEO CODEC.....: XVID \nBITRATE.........: 1749 Kbit/s\nWIDTH &amp; HEIGHT..: 720 X 320\nFRAMES/S........: 23.976 Fps\nAUDIO...........: Korean\nAUDIO CODE......: AC3\nBITRATE.........: 448kbps\nCHANNELS........: 5\nSAMPLING........: 48.0 kHz\nSubtitles.......: Dutch Selectable\nCover en label..: Yes meegepost.\nCategory........: Video \nFormat..........: DivX \nSource..........: Retail  \nSubtitle........: Dutch subs extern\n\nGeneral\nComplete name                    : The Man From Nowhere-2010.avi\nFormat                           : DivX\nFormat/Info                      : Hack of AVI\nFile size                        : 1.46 GiB\nDuration                         : 1h 59mn\nOverall bit rate                 : 1 750 Kbps\n\nVideo\nID                               : 0\nFormat                           : MPEG-4 Visual\nFormat profile                   : Advanced Simple@L5\nFormat settings, BVOP            : 1\nFormat settings, QPel            : No\nFormat settings, GMC             : No warppoints\nFormat settings, Matrix          : Default (H.263)\nMuxing mode                      : Packed bitstream\nCodec ID                         : DX50\nCodec ID/Hint                    : DivX 5\nDuration                         : 1h 59mn\nBit rate                         : 1 292 Kbps\nWidth                            : 720 pixels\nHeight                           : 320 pixels\nDisplay aspect ratio             : 2.25:1\nFrame rate                       : 23.976 fps\nColor space                      : YUV\nChroma subsampling               : 4:2:0\nBit depth                        : 8 bits\nScan type                        : Progressive\nCompression mode                 : Lossy\nBits/(Pixel*Frame)               : 0.234\nStream size                      : 1.08 GiB (74%)\nTitle                            : Video \nWriting library                  : XviD 62\n\nAudio\nID                               : 1\nFormat                           : AC-3\nFormat/Info                      : Audio Coding 3\nMode extension                   : CM (complete main)\nCodec ID                         : 2000\nDuration                         : 1h 59mn\nBit rate mode                    : Constant\nBit rate                         : 448 Kbps\nChannel(s)                       : 6 channels\nChannel positions                : Front: L C R, Side: L R, LFE\nSampling rate                    : 48.0 KHz\nBit depth                        : 16 bits\nCompression mode                 : Lossy\nStream size                      : 382 MiB (26%)\nAlignment                        : Split accross interleaves\nInterleave, duration             : 42 ms (1.00 video frame)\nInterleave, preload duration     : 500 ms\nTitle                            : Audio \n  \n\n \n &lt;a href=&quot;\nhttp://www.moviemeter.nl/film/69054&quot; rel=&quot;nofollow&quot; target=&quot;_NEW&quot;&gt;\nhttp://www.moviemeter.nl/film/69054&lt;/a&gt; &lt;a href=&quot;\nhttp://www.imdb.com/title/tt1527788&quot; rel=&quot;nofollow&quot; target=&quot;_NEW&quot;&gt;\nhttp://www.imdb.com/title/tt1527788&lt;/a&gt;","torrent":{"xt":"urn:btih:1af07c9970595a6e7cc0b9b844ec2eb5f81e4ecf","amp;dn":"The+Man+from+Nowhere+%28Ajeossi%29+%282010%29+HQ+AC3+DD5.1+%28Externe+Nl+S","amp;tr":["udp%3A%2F%2Ftracker.openbittorrent.com%3A80","udp%3A%2F%2Fopen.demonii.com%3A1337","udp%3A%2F%2Ftracker.coppersurfer.tk%3A6969","udp%3A%2F%2Fexodus.desync.com%3A6969"],"infoHash":"1af07c9970595a6e7cc0b9b844ec2eb5f81e4ecf","infoHashBuffer":{"type":"Buffer","data":[26,240,124,153,112,89,90,110,124,192,185,184,68,236,46,181,248,30,78,207]},"announce":[],"urlList":[]}}